<svg xmlns="http://www.w3.org/2000/svg" version="1.1" xmlns:xlink="http://www.w3.org/1999/xlink" xmlns:svgjs="http://svgjs.dev/svgjs" width="1440" height="560" preserveAspectRatio="none" viewBox="0 0 1440 560"><g mask="url(&quot;#SvgjsMask1042&quot;)" fill="none"><path d="M -952.5957389265575,144 C -856.6,190.2 -664.6,387.2 -472.59573892655754,375 C -280.6,362.8 -184.6,81 7.404261073442456,83 C 199.4,85 295.4,362.8 487.40426107344246,385 C 679.4,407.2 776.89,182.6 967.4042610734425,194 C 1157.92,205.4 1345.48,392.4 1440,442" stroke="rgba(67, 30, 159, 1)" stroke-width="2"></path><path d="M -113.47686683746082,210 C -17.48,265.6 174.52,502.8 366.5231331625392,488 C 558.52,473.2 654.52,148 846.5231331625391,136 C 1038.52,124 1134.52,410 1326.5231331625391,428 C 1518.52,446 1783.83,240.2 1806.5231331625391,226 C 1829.22,211.8 1513.3,330.8 1440,357" stroke="rgba(87, 50, 181, 1)" stroke-width="2"></path><path d="M -290.7886480461151,415 C -194.79,383 -2.79,244 189.2113519538849,255 C 381.21,266 477.21,480.8 669.2113519538849,470 C 861.21,459.2 957.21,211.4 1149.2113519538848,201 C 1341.21,190.6 1571.05,409.4 1629.2113519538848,418 C 1687.37,426.6 1477.84,278.8 1440,244" stroke="rgba(87, 50, 181, 1)" stroke-width="2"></path><path d="M -310.9370341375448,306 C -214.94,278.2 -22.94,148 169.0629658624552,167 C 361.06,186 457.06,417.4 649.0629658624553,401 C 841.06,384.6 937.06,105.4 1129.0629658624553,85 C 1321.06,64.6 1546.88,272.2 1609.0629658624553,299 C 1671.25,325.8 1473.81,235 1440,219" stroke="rgba(91, 54, 187, 1)" stroke-width="2"></path></g><defs><mask id="SvgjsMask1042"><rect width="1440" height="560" fill="#ffffff"></rect></mask></defs></svg>